# xmcd
#
# Track frame offsets: 
#        183
#        14978
#        33148
#        48073
#        67585
#        85573
#        103478
#        121380
#        139433
#        155708
#        170293
#
# Disc length: 2580 seconds
#
# Revision: 0
# Processed by: cddbd v1.5.2PL0 Copyright (c) Steve Scherf et al.
# Submitted via: ExactAudioCopy v0.99pb3
#
DISCID=8d0a120b
DTITLE=Dr. Feelgood - Classic
DYEAR=1900
DGENRE=Blues
TTITLE0=Hunting Shooting Fishing
TTITLE1=Break These Chains
TTITLE2=Heartbeat
TTITLE3=(I wanna) make love to you
TTITLE4=Highway 61
TTITLE5=Hurricane
TTITLE6=Quick while you're behind
TTITLE7=See you later alligator
TTITLE8=Nothing like it
TTITLE9=Spy vs spy
TTITLE10=Crack me up
EXTD=
EXTT0=
EXTT1=
EXTT2=
EXTT3=
EXTT4=
EXTT5=
EXTT6=
EXTT7=
EXTT8=
EXTT9=
EXTT10=
PLAYORDER=
